# xmcd CD database file
#
# Track frame offsets:
#	750
#	15225
#	29338
#	42000
#	55233
#	69745
#	85475
#	100893
#	116073
#	132225
#	146343
#	162368
#	176378
#	189638
#	206698
#	221200
#	239200
#	255788
#	283000
#	355650
#
# Disc length: 4742 seconds
#
# Revision: 0
# Processed by: cddbd v1.5.1PL2 Copyright (c) Steve Scherf et al.
# Submitted via: ACXtractor (MTCDDB.DLL V2003.12.21)
#
DISCID=26127c14
DTITLE=Truck Stop - 30 Jahre Truck Stop
DYEAR=2003
DGENRE=Country
TTITLE0=Lucius - Von Arizona bis Old Texas Town
TTITLE1=Gunter Gabriel and Cisco - Die Frau mit dem Gurt
TTITLE2=Lucius - 300 Jahre (wenn man uns addiert)
TTITLE3=Stefan Raab and Cisco - Der wilde, wilde Westen
TTITLE4=Lucius - Mississippi Lady
TTITLE5=Cisco - Wir sind die Country-Superstars
TTITLE6=The Bellamy Brothers and Lucius - Hello, Lady Harley
TTITLE7=Cisco - Das Leben ist viel zu kurz (egal, wie lang es ist)
TTITLE8=Tom Astor and Cisco - Ich möcht so gern Dave Dudley hör'n
TTITLE9=Cisco - Das gibt es nur in Mashville!
TTITLE10=Linda Feller and Lucius - Hey, kleiner Cowboy
TTITLE11=Cisco - Keep on Truckin'
TTITLE12=Markus (Klostertaler) and Lucius - Take it Easy, altes Haus
TTITLE13=Cisco - Wie schön, dass Du das bist
TTITLE14=Höhner and Lucius - Angeln entspannt
TTITLE15=Cisco and Lucius - Ein Herz und eine Seele
TTITLE16=Lucius - Jenny
TTITLE17=Peter (Schürzenjäger) and Lucius - Freunde bleiben
TTITLE18=DATA track
TTITLE19=DATA track
EXTD=ID3G:   2 YEAR: 2003
EXTT0=
EXTT1=
EXTT2=
EXTT3=
EXTT4=
EXTT5=
EXTT6=
EXTT7=
EXTT8=
EXTT9=
EXTT10=
EXTT11=
EXTT12=
EXTT13=
EXTT14=
EXTT15=
EXTT16=
EXTT17=
EXTT18=
EXTT19=
PLAYORDER=
